<svg width="1200" height="800" viewBox="0 0 1200 800" xmlns="http://www.w3.org/2000/svg">
  <defs>
    <linearGradient id="bg" x1="0" y1="0" x2="1" y2="1">
      <stop offset="0%" stop-color="#0f1117"/>
      <stop offset="100%" stop-color="#06080c"/>
    </linearGradient>
    <linearGradient id="accent" x1="0" y1="0" x2="1" y2="1">
      <stop offset="0%" stop-color="#35c57a"/>
      <stop offset="100%" stop-color="#1f7a4b"/>
    </linearGradient>
  </defs>
  <rect width="1200" height="800" fill="url(#bg)"/>
  <circle cx="160" cy="118" r="132" fill="url(#accent)" opacity="0.24"/>
  <circle cx="1040" cy="668" r="188" fill="url(#accent)" opacity="0.14"/>
  <rect x="110" y="104" width="980" height="596" rx="28" fill="#11141c" stroke="#2b3140"/>
  <text x="160" y="170" font-family="Arial, sans-serif" font-size="26" fill="#d8deea" letter-spacing="3">SHOPIFY OPTIMIZATION</text>
  <text x="160" y="250" font-family="Arial, sans-serif" font-size="58" fill="#f5f4f2" font-weight="700">Product Pages</text>
  <text x="160" y="318" font-family="Arial, sans-serif" font-size="58" fill="#f5f4f2" font-weight="700">Collections and Mobile Flow</text>
  <rect x="160" y="372" width="278" height="54" rx="27" fill="url(#accent)"/>
  <text x="202" y="407" font-family="Arial, sans-serif" font-size="24" fill="#0d0f14" font-weight="700">Conversion clarity</text>
  <rect x="160" y="478" width="382" height="16" rx="8" fill="#283041"/>
  <rect x="160" y="512" width="332" height="16" rx="8" fill="#283041"/>
  <rect x="160" y="546" width="286" height="16" rx="8" fill="#283041"/>
  <rect x="620" y="190" width="380" height="236" rx="24" fill="#171d28"/>
  <rect x="654" y="228" width="126" height="18" rx="9" fill="#2b3140"/>
  <rect x="654" y="270" width="214" height="18" rx="9" fill="#2b3140"/>
  <rect x="654" y="312" width="280" height="18" rx="9" fill="#2b3140"/>
  <rect x="654" y="356" width="164" height="38" rx="19" fill="url(#accent)"/>
  <rect x="620" y="462" width="174" height="132" rx="18" fill="#171d28"/>
  <rect x="814" y="462" width="186" height="132" rx="18" fill="#171d28"/>
  <text x="664" y="545" font-family="Arial, sans-serif" font-size="28" fill="#f5f4f2" font-weight="700">+ cleaner</text>
  <text x="664" y="578" font-family="Arial, sans-serif" font-size="28" fill="#f5f4f2" font-weight="700">buying path</text>
  <text x="858" y="545" font-family="Arial, sans-serif" font-size="28" fill="#f5f4f2" font-weight="700">QA on</text>
  <text x="858" y="578" font-family="Arial, sans-serif" font-size="28" fill="#f5f4f2" font-weight="700">real devices</text>
</svg>
