<svg width="1200" height="800" viewBox="0 0 1200 800" xmlns="http://www.w3.org/2000/svg">
  <defs>
    <linearGradient id="bg" x1="0" y1="0" x2="1" y2="1">
      <stop offset="0%" stop-color="#0f1117"/>
      <stop offset="100%" stop-color="#06080c"/>
    </linearGradient>
    <linearGradient id="accent" x1="0" y1="0" x2="1" y2="1">
      <stop offset="0%" stop-color="#ff7a6b"/>
      <stop offset="100%" stop-color="#c23a3a"/>
    </linearGradient>
  </defs>
  <rect width="1200" height="800" fill="url(#bg)"/>
  <circle cx="174" cy="126" r="134" fill="url(#accent)" opacity="0.22"/>
  <circle cx="1028" cy="666" r="190" fill="url(#accent)" opacity="0.12"/>
  <rect x="108" y="104" width="984" height="592" rx="28" fill="#11141c" stroke="#2b3140"/>
  <text x="160" y="170" font-family="Arial, sans-serif" font-size="26" fill="#d8deea" letter-spacing="3">QA CHECKLIST</text>
  <text x="160" y="248" font-family="Arial, sans-serif" font-size="58" fill="#f5f4f2" font-weight="700">Launch Readiness</text>
  <text x="160" y="316" font-family="Arial, sans-serif" font-size="58" fill="#f5f4f2" font-weight="700">Before Traffic Arrives</text>
  <rect x="160" y="374" width="226" height="54" rx="27" fill="url(#accent)"/>
  <text x="198" y="408" font-family="Arial, sans-serif" font-size="24" fill="#0d0f14" font-weight="700">Retest matters</text>
  <rect x="620" y="176" width="366" height="402" rx="24" fill="#171d28"/>
  <rect x="666" y="228" width="198" height="18" rx="9" fill="#2b3140"/>
  <rect x="666" y="286" width="214" height="18" rx="9" fill="#2b3140"/>
  <rect x="666" y="344" width="188" height="18" rx="9" fill="#2b3140"/>
  <rect x="666" y="402" width="224" height="18" rx="9" fill="#2b3140"/>
  <path d="M698 238 L720 260 L764 214" fill="none" stroke="url(#accent)" stroke-width="12" stroke-linecap="round" stroke-linejoin="round"/>
  <path d="M698 296 L720 318 L764 272" fill="none" stroke="url(#accent)" stroke-width="12" stroke-linecap="round" stroke-linejoin="round"/>
  <path d="M698 354 L720 376 L764 330" fill="none" stroke="url(#accent)" stroke-width="12" stroke-linecap="round" stroke-linejoin="round"/>
  <rect x="160" y="506" width="252" height="114" rx="18" fill="#171d28"/>
  <text x="194" y="566" font-family="Arial, sans-serif" font-size="30" fill="#f5f4f2" font-weight="700">Forms</text>
  <text x="194" y="602" font-family="Arial, sans-serif" font-size="30" fill="#f5f4f2" font-weight="700">Devices</text>
  <rect x="676" y="598" width="282" height="78" rx="18" fill="url(#accent)" opacity="0.9"/>
  <text x="730" y="646" font-family="Arial, sans-serif" font-size="32" fill="#0d0f14" font-weight="700">0 missed steps</text>
</svg>
