<svg width="1200" height="800" viewBox="0 0 1200 800" xmlns="http://www.w3.org/2000/svg">
  <defs>
    <linearGradient id="bg" x1="0" y1="0" x2="1" y2="1">
      <stop offset="0%" stop-color="#0f1117"/>
      <stop offset="100%" stop-color="#06080c"/>
    </linearGradient>
    <linearGradient id="accent" x1="0" y1="0" x2="1" y2="1">
      <stop offset="0%" stop-color="#ffb347"/>
      <stop offset="100%" stop-color="#ff6b2d"/>
    </linearGradient>
  </defs>
  <rect width="1200" height="800" fill="url(#bg)"/>
  <circle cx="182" cy="122" r="136" fill="url(#accent)" opacity="0.22"/>
  <circle cx="1024" cy="668" r="194" fill="url(#accent)" opacity="0.12"/>
  <rect x="108" y="104" width="984" height="592" rx="28" fill="#11141c" stroke="#2b3140"/>
  <text x="160" y="170" font-family="Arial, sans-serif" font-size="26" fill="#d8deea" letter-spacing="3">UI IMPLEMENTATION</text>
  <text x="160" y="248" font-family="Arial, sans-serif" font-size="58" fill="#f5f4f2" font-weight="700">Spacing Rhythm</text>
  <text x="160" y="316" font-family="Arial, sans-serif" font-size="58" fill="#f5f4f2" font-weight="700">and CTA Clarity</text>
  <rect x="160" y="372" width="244" height="54" rx="27" fill="url(#accent)"/>
  <text x="208" y="407" font-family="Arial, sans-serif" font-size="24" fill="#0d0f14" font-weight="700">Live polish</text>
  <rect x="614" y="172" width="416" height="384" rx="24" fill="#171d28"/>
  <rect x="650" y="214" width="176" height="16" rx="8" fill="#2b3140"/>
  <rect x="650" y="246" width="122" height="16" rx="8" fill="#2b3140"/>
  <rect x="650" y="294" width="332" height="56" rx="18" fill="#202736"/>
  <rect x="650" y="370" width="288" height="18" rx="9" fill="#2b3140"/>
  <rect x="650" y="404" width="226" height="18" rx="9" fill="#2b3140"/>
  <rect x="650" y="448" width="154" height="40" rx="20" fill="url(#accent)"/>
  <rect x="160" y="492" width="198" height="126" rx="18" fill="#171d28"/>
  <rect x="382" y="492" width="198" height="126" rx="18" fill="#171d28"/>
  <text x="192" y="560" font-family="Arial, sans-serif" font-size="28" fill="#f5f4f2" font-weight="700">Desktop</text>
  <text x="192" y="594" font-family="Arial, sans-serif" font-size="28" fill="#f5f4f2" font-weight="700">to mobile</text>
  <text x="416" y="560" font-family="Arial, sans-serif" font-size="28" fill="#f5f4f2" font-weight="700">Trust in</text>
  <text x="416" y="594" font-family="Arial, sans-serif" font-size="28" fill="#f5f4f2" font-weight="700">the browser</text>
</svg>
