<svg width="1200" height="800" viewBox="0 0 1200 800" xmlns="http://www.w3.org/2000/svg">
  <defs>
    <linearGradient id="bg" x1="0" y1="0" x2="1" y2="1">
      <stop offset="0%" stop-color="#0f1117"/>
      <stop offset="100%" stop-color="#06080c"/>
    </linearGradient>
    <linearGradient id="accent" x1="0" y1="0" x2="1" y2="1">
      <stop offset="0%" stop-color="#56d2c1"/>
      <stop offset="100%" stop-color="#287f8b"/>
    </linearGradient>
  </defs>
  <rect width="1200" height="800" fill="url(#bg)"/>
  <circle cx="182" cy="122" r="136" fill="url(#accent)" opacity="0.22"/>
  <circle cx="1022" cy="664" r="192" fill="url(#accent)" opacity="0.12"/>
  <rect x="108" y="104" width="984" height="592" rx="28" fill="#11141c" stroke="#2b3140"/>
  <text x="160" y="170" font-family="Arial, sans-serif" font-size="26" fill="#d8deea" letter-spacing="3">WEBSITE MAINTENANCE</text>
  <text x="160" y="248" font-family="Arial, sans-serif" font-size="58" fill="#f5f4f2" font-weight="700">Updates</text>
  <text x="160" y="316" font-family="Arial, sans-serif" font-size="58" fill="#f5f4f2" font-weight="700">Bug Fixes and QA Rhythm</text>
  <rect x="160" y="372" width="248" height="54" rx="27" fill="url(#accent)"/>
  <text x="200" y="407" font-family="Arial, sans-serif" font-size="24" fill="#0d0f14" font-weight="700">High-intent first</text>
  <rect x="614" y="176" width="412" height="392" rx="24" fill="#171d28"/>
  <rect x="654" y="224" width="242" height="18" rx="9" fill="#2b3140"/>
  <rect x="654" y="270" width="294" height="18" rx="9" fill="#2b3140"/>
  <rect x="654" y="316" width="186" height="18" rx="9" fill="#2b3140"/>
  <circle cx="688" cy="410" r="26" fill="url(#accent)"/>
  <circle cx="818" cy="410" r="26" fill="url(#accent)"/>
  <circle cx="948" cy="410" r="26" fill="url(#accent)"/>
  <path d="M688 410 H948" stroke="url(#accent)" stroke-width="10" stroke-linecap="round"/>
  <rect x="170" y="500" width="218" height="118" rx="18" fill="#171d28"/>
  <text x="204" y="568" font-family="Arial, sans-serif" font-size="30" fill="#f5f4f2" font-weight="700">Keep a</text>
  <text x="204" y="602" font-family="Arial, sans-serif" font-size="30" fill="#f5f4f2" font-weight="700">visible log</text>
</svg>
