<svg width="1200" height="800" viewBox="0 0 1200 800" xmlns="http://www.w3.org/2000/svg">
  <defs>
    <linearGradient id="bg" x1="0" y1="0" x2="1" y2="1">
      <stop offset="0%" stop-color="#0f1117"/>
      <stop offset="100%" stop-color="#06080c"/>
    </linearGradient>
    <linearGradient id="accent" x1="0" y1="0" x2="1" y2="1">
      <stop offset="0%" stop-color="#2f9e66"/>
      <stop offset="100%" stop-color="#1f6f49"/>
    </linearGradient>
  </defs>
  <rect width="1200" height="800" fill="url(#bg)"/>
  <circle cx="170" cy="120" r="130" fill="url(#accent)" opacity="0.28"/>
  <circle cx="1020" cy="680" r="180" fill="url(#accent)" opacity="0.18"/>

  <rect x="120" y="110" width="960" height="580" rx="24" fill="#11141c" stroke="#2c3342"/>
  <rect x="160" y="170" width="380" height="40" rx="10" fill="#1c2230"/>
  <rect x="160" y="228" width="280" height="16" rx="8" fill="#2a3142"/>
  <rect x="160" y="260" width="240" height="16" rx="8" fill="#2a3142"/>
  <rect x="160" y="300" width="200" height="46" rx="23" fill="url(#accent)"/>

  <rect x="580" y="170" width="450" height="330" rx="16" fill="#191f2a"/>
  <rect x="610" y="208" width="180" height="20" rx="10" fill="#2d3648"/>
  <rect x="610" y="246" width="130" height="14" rx="7" fill="#2a3142"/>
  <rect x="610" y="282" width="280" height="14" rx="7" fill="#2a3142"/>
  <rect x="610" y="318" width="360" height="14" rx="7" fill="#2a3142"/>

  <rect x="160" y="420" width="180" height="120" rx="14" fill="#191f2a"/>
  <rect x="360" y="420" width="180" height="120" rx="14" fill="#191f2a"/>
  <rect x="560" y="420" width="180" height="120" rx="14" fill="#191f2a"/>

  <rect x="770" y="548" width="260" height="96" rx="16" fill="url(#accent)" opacity="0.9"/>
  <text x="800" y="607" font-family="Arial, sans-serif" font-size="34" fill="#0d0f14" font-weight="700">+34% Checkout</text>

  <text x="160" y="145" font-family="Arial, sans-serif" font-size="24" fill="#d8deea" letter-spacing="2">Shopify</text>
</svg>
