<svg width="1200" height="800" viewBox="0 0 1200 800" xmlns="http://www.w3.org/2000/svg">
  <defs>
    <linearGradient id="bg" x1="0" y1="0" x2="1" y2="1">
      <stop offset="0%" stop-color="#130c0a"/>
      <stop offset="100%" stop-color="#090b12"/>
    </linearGradient>
    <linearGradient id="accent" x1="0" y1="0" x2="1" y2="1">
      <stop offset="0%" stop-color="#ff7a1f"/>
      <stop offset="100%" stop-color="#ff3f2c"/>
    </linearGradient>
  </defs>

  <rect width="1200" height="800" fill="url(#bg)"/>
  <circle cx="170" cy="100" r="130" fill="#ff7a1f" opacity="0.22"/>
  <circle cx="1020" cy="700" r="190" fill="#ff3f2c" opacity="0.16"/>

  <rect x="120" y="110" width="960" height="580" rx="26" fill="#121621" stroke="#32394a"/>

  <rect x="160" y="156" width="320" height="18" rx="9" fill="#2a3242"/>
  <rect x="510" y="156" width="140" height="18" rx="9" fill="#2a3242"/>
  <rect x="900" y="150" width="140" height="30" rx="15" fill="url(#accent)"/>

  <rect x="160" y="220" width="420" height="54" rx="12" fill="#1b2231"/>
  <rect x="160" y="292" width="280" height="16" rx="8" fill="#2a3242"/>
  <rect x="160" y="324" width="240" height="16" rx="8" fill="#2a3242"/>
  <rect x="160" y="364" width="200" height="44" rx="22" fill="url(#accent)"/>

  <rect x="620" y="220" width="420" height="230" rx="18" fill="#1a2130"/>
  <rect x="650" y="250" width="160" height="18" rx="9" fill="#2e3749"/>
  <rect x="650" y="285" width="300" height="14" rx="7" fill="#2a3242"/>
  <rect x="650" y="316" width="270" height="14" rx="7" fill="#2a3242"/>
  <rect x="650" y="347" width="200" height="14" rx="7" fill="#2a3242"/>

  <rect x="160" y="474" width="280" height="160" rx="16" fill="#1a2130"/>
  <rect x="460" y="474" width="280" height="160" rx="16" fill="#1a2130"/>
  <rect x="760" y="474" width="280" height="160" rx="16" fill="#1a2130"/>

  <rect x="790" y="568" width="240" height="56" rx="12" fill="url(#accent)" opacity="0.92"/>
  <text x="814" y="603" font-family="Arial, sans-serif" font-size="20" fill="#120f14" font-weight="700">UX + Conversion Lift</text>

  <text x="160" y="142" font-family="Arial, sans-serif" font-size="24" fill="#d8deea" letter-spacing="2">SUAVE FLORIDA</text>
</svg>
